<svg xmlns="http://www.w3.org/2000/svg" height="512" width="512"><path d="M203.768 187.45c0 7.61 2.188 13.665 6.56 18.166s10.195 6.755 17.484 6.755c7.566 0 13.508-2.18 17.818-6.544 4.316-4.36 6.48-10.377 6.48-18.046v-46.256c0-6.827-2.2-12.408-6.603-16.742-4.397-4.334-10.04-6.504-16.935-6.504-7.57 0-13.597 2.058-18.08 6.168s-6.723 9.635-6.723 16.57l.001 46.432zm17.132-47.103c0-1.957.642-3.54 1.908-4.742 1.272-1.2 2.926-1.806 4.955-1.806 2.203 0 3.984.604 5.334 1.806s2.033 2.785 2.033 4.742v48.78c0 2.4-.662 4.296-1.986 5.67s-3.126 2.058-5.38 2.058c-2.204 0-3.893-.67-5.08-2.014s-1.782-3.247-1.782-5.713v-48.78zm-56.863 69.76h18.754v-50.38l21.827-71.037h-19.056l-11.602 48.53h-1.177l-12.17-48.53h-18.89l22.31 73.304v48.112zM277.88 211.4c3.116 0 6.337-.955 9.66-2.854 3.317-1.905 6.51-4.685 9.582-8.325v9.887h16.65v-89.565h-16.65v67.985c-1.565 1.957-3.28 3.563-5.147 4.82s-3.418 1.883-4.644 1.883c-1.565 0-2.7-.474-3.392-1.423s-1.043-2.484-1.043-4.61v-68.658h-16.654v74.86c0 5.333.973 9.334 2.927 12s4.854 4 8.71 4zm118.333 66.657c0-21.63-17.756-39.178-39.64-39.178-31.224-1.306-63.174-1.883-95.765-1.822-32.587-.06-64.54.518-95.765 1.822-21.883 0-39.635 17.55-39.635 39.178-1.312 17.13-1.883 34.264-1.832 51.395-.05 17.13.52 34.262 1.832 51.393 0 21.63 17.752 39.182 39.635 39.182 31.225 1.305 63.178 1.88 95.765 1.82 32.59.06 64.54-.518 95.765-1.82 21.883 0 39.64-17.552 39.64-39.182 1.31-17.13 1.88-34.263 1.83-51.393.05-17.134-.522-34.264-1.83-51.395zM183 388.413h-18.752v-103.79h-19.4V267h57.558v17.622H183v103.79zm66.703 0H233.05v-9.885c-3.062 3.644-6.252 6.42-9.58 8.324-3.32 1.903-6.54 2.856-9.664 2.856-3.85 0-6.75-1.332-8.7-3.998s-2.926-6.668-2.926-11.998v-74.864h16.648v68.657c0 2.127.35 3.66 1.048 4.61s1.825 1.426 3.386 1.426c1.23 0 2.772-.625 4.646-1.886 1.863-1.258 3.585-2.864 5.143-4.823v-67.984h16.654v89.566zm64.104-18.556c0 6.367-1.31 11.242-3.9 14.62-2.608 3.383-6.38 5.066-11.315 5.066-3.254 0-6.153-.65-8.705-1.963s-4.922-3.324-7.108-6.055v6.885h-16.814V267h16.814v39.088c2.242-2.732 4.623-4.81 7.146-6.234s5.077-2.137 7.657-2.137c5.27 0 9.3 1.916 12.07 5.74s4.168 9.396 4.168 16.7l-.003 49.7zm61.548-24.125H343.5v16.895c0 4.7.55 7.977 1.65 9.8s2.972 2.732 5.623 2.732c2.758 0 4.69-.77 5.79-2.312s1.65-4.95 1.65-10.22v-6.225h17.14v6.73c0 9.18-2.088 16.092-6.262 20.736s-10.402 6.973-18.7 6.973c-7.45 0-13.318-2.463-17.6-7.388s-6.43-11.7-6.43-20.32v-40.2c0-7.777 2.358-14.108 7.062-19.006s10.78-7.338 18.23-7.338c7.62 0 13.47 2.265 17.565 6.795 4.084 4.53 6.133 11.045 6.133 19.55l.005 22.8zm-24.417-33.462c-2.644 0-4.547.813-5.703 2.436s-1.732 4.31-1.732 8.06v9.066h14.715v-9.066c0-3.748-.582-6.435-1.73-8.06-1.164-1.623-3.01-2.436-5.55-2.436zm-61.22-.325c-1.19 0-2.36.295-3.52.88s-2.306 1.498-3.433 2.73v55.816c1.354 1.45 2.672 2.504 3.94 3.146a8.78 8.78 0 0 0 4.024.966c2.032 0 3.53-.632 4.5-1.89s1.444-3.317 1.444-6.174v-46.244c0-3.02-.596-5.313-1.78-6.88s-2.906-2.35-5.164-2.35z"/></svg>